<?xml version="1.0" encoding="iso-8859-1"?>
<!-- Generator: Adobe Illustrator 18.1.1, SVG Export Plug-In . SVG Version: 6.00 Build 0)  -->
<svg version="1.1" id="Capa_1" xmlns="http://www.w3.org/2000/svg" xmlns:xlink="http://www.w3.org/1999/xlink" x="0px" y="0px"
	 viewBox="0 0 21.409 21.409" style="enable-background:new 0 0 21.409 21.409;" xml:space="preserve">
<g>
	<path style="fill:#010002;" d="M10.705,0c5.818,0,10.536,4.793,10.536,10.705c0,5.911-4.718,10.704-10.536,10.704
		c-5.817,0-10.536-4.794-10.536-10.704C0.168,4.793,4.887,0,10.705,0L10.705,0z M19.298,6.726h-3.272
		c0.223,1.037,0.361,2.153,0.398,3.32h3.7C20.046,8.868,19.757,7.749,19.298,6.726L19.298,6.726z M15.377,6.726h-3.932v3.32h4.381
		C15.783,8.868,15.627,7.749,15.377,6.726L15.377,6.726z M10.116,6.726H6.032c-0.25,1.023-0.407,2.143-0.449,3.32h4.533V6.726
		L10.116,6.726z M5.385,6.726H2.112c-0.46,1.023-0.748,2.143-0.827,3.32h3.7C5.023,8.879,5.162,7.762,5.385,6.726L5.385,6.726z
		 M2.842,5.396h2.888c0.472-1.541,1.143-2.841,1.947-3.779C5.682,2.303,3.987,3.647,2.842,5.396L2.842,5.396z M6.43,5.396h3.688
		v-4.22C8.578,1.504,7.247,3.103,6.43,5.396L6.43,5.396z M11.446,5.396h3.535c-0.79-2.218-2.062-3.786-3.535-4.184V5.396
		L11.446,5.396z M15.681,5.396h2.887c-1.146-1.749-2.842-3.093-4.836-3.779C14.538,2.555,15.208,3.856,15.681,5.396L15.681,5.396z
		 M20.124,11.375h-3.7c-0.039,1.169-0.178,2.287-0.402,3.325h3.269C19.752,13.676,20.042,12.555,20.124,11.375L20.124,11.375z
		 M15.826,11.375h-4.381V14.7h3.928C15.625,13.676,15.783,12.555,15.826,11.375L15.826,11.375z M10.116,11.375H5.583
		c0.044,1.18,0.202,2.301,0.453,3.325h4.08V11.375L10.116,11.375z M4.986,11.375h-3.7c0.08,1.18,0.371,2.301,0.834,3.325h3.268
		C5.164,13.663,5.024,12.544,4.986,11.375L4.986,11.375z M11.446,16.029v4.167c1.47-0.397,2.738-1.958,3.529-4.167H11.446
		L11.446,16.029z M10.116,20.233v-4.204H6.436C7.253,18.314,8.582,19.906,10.116,20.233L10.116,20.233z M18.558,16.029h-2.883
		c-0.472,1.533-1.141,2.828-1.942,3.763C15.722,19.108,17.411,17.77,18.558,16.029L18.558,16.029z M5.734,16.029H2.852
		c1.146,1.74,2.837,3.079,4.824,3.763C6.874,18.857,6.206,17.562,5.734,16.029z"/>
</g>
<g>
</g>
<g>
</g>
<g>
</g>
<g>
</g>
<g>
</g>
<g>
</g>
<g>
</g>
<g>
</g>
<g>
</g>
<g>
</g>
<g>
</g>
<g>
</g>
<g>
</g>
<g>
</g>
<g>
</g>
</svg>
