<svg id="Layer_1" data-name="Layer 1" xmlns="http://www.w3.org/2000/svg" width="64" height="64" viewBox="0 0 64 64"><defs><style>.cls-1{fill:#1d1d1b;}</style></defs><title>puzzle-piece</title><path class="cls-1" d="M57,33.11c-.66-2.33-2.16-3.16-4.54-3.25s-4.37,2.71-5.08,3-1.17,0-1.58-.75-.38-3.62.12-6.16-.17-3.38-.71-5.55-3.71-2-5.87-2.08-5.25,0-6.21-.87,1.12-4.8,1.58-7.21S33,4.2,28.29,4.4,22.66,6,21.16,7.61s0,4.54.67,5.13a4,4,0,0,1,1.41,2.66c0,.92-1,2.34-3.12,2.55a42,42,0,0,1-7.25-.3c-1.88-.2-3.33.75-5,2S6.66,25.07,6.7,28.2s0,3.7,1.09,5,4.86.47,5.87-.05c1.88-.95,2.21-3.5,3.46-3.87S19,30,19.91,32.36s.25,5.38,0,6.46-2.38,1.92-3.67,1.67S14.29,38,13.58,37.4s-1.71-.33-3.42.92a5.11,5.11,0,0,0-2.29,4.25c-.08,1.63,0,11.54.29,13.25s.63,2.33,2.75,3.13,4.25.66,8.88.62,5.12-.67,5.95-1.17,1-1.95.75-3.2S25.41,53.65,24,52.86s-1.88-.66-3-1.75-.5-4.71.29-5.41a8.3,8.3,0,0,1,4.37-1.8,6.32,6.32,0,0,1,4.92,2.25c1.75,1.8.75,4.75.42,5.34s-1.5,1.41-2,2.5-.17,3.25.41,3.71,2,1,4.67,1.25A37.69,37.69,0,0,0,44,58.36c2.84-.66,3-3.79,3-5.12s-.55-8.34-.67-9.67.17-3.37.54-3.5,1.46,2,2.25,3,1.88.71,3.54.33a6.6,6.6,0,0,0,4-3.58A11.64,11.64,0,0,0,57,33.11Zm-2,5.5c-.25-.12-1.91-4.83-2.29-4.83s-1,.58-.71.92,2.67,4.58,2.5,5-.54,1-.66.7-1.59-4-1.92-4-.88.38-.63.71,1.88,3.67,1.67,3.88-.46.5-.58.29a34.78,34.78,0,0,0-2.09-3.88c-.25,0-.79.21-.66.54s1.66,3.67,1.54,3.67-.54.17-1.29-1S49,38.32,47.62,38a2.23,2.23,0,0,0-2.5.83,6.68,6.68,0,0,0-.88,3.79c.13,1.54.17,5.71.17,5.71s-3.25-7.75-3.58-7.92-.84.63-.71.71,4.33,8.46,4.33,8.63.25,2.58.25,2.83-.08,1.17-.21,1.08-4.66-9.54-5-9.7-.62.79-.62.79S42.58,52.11,43,52.9s1.41,2.25,1.25,2.5-.71.84-.88.67-4.29-8.5-4.62-8.5-.55,1-.42,1.25,4.46,7.75,4.33,7.83-1,.46-1.12.17-3.09-6.33-3.46-6.46-.42.42-.38.71,3,5.54,2.67,5.67-.92.25-1.08.12S37.16,52.61,37,52.61s-.71.71-.55,1A19,19,0,0,1,38,57c-.21,0-1.25,0-1.33-.17s-1.5-2.38-1.5-2.38-1,.13-.54.71S35.74,57,35.41,57a21.29,21.29,0,0,1-3.67-.54,2.22,2.22,0,0,1-.33-2.67c.63-.67,3.13-2.08,2.25-6s-2.58-4.54-5.42-5.58a8.27,8.27,0,0,0-7.91,1.62c-2,1.67-2.17,5.38-1.75,7s1.83,2.63,3,3.42,2.12.46,2.54,1.21.21,1.83-1.88,2S15,57.9,13,57.4s-2.46-1.2-2.75-2.33,0-11.58-.09-12.54.84-3,1.88-3,1.58,2.42,2.5,2.75a6,6,0,0,0,5-.67c2.21-1.29,3.25-3.16,2.79-6.95s-1.5-5.92-3.12-6.8a3.55,3.55,0,0,0-4.5.42c-1.46,1.29-1.42,2.88-2.25,3.46a2.55,2.55,0,0,1-2.13.25c-.66-.1-1.21,0-1.5-1.67a55.85,55.85,0,0,1,.21-9,3.09,3.09,0,0,1,3-1.75c1.75.13,4.54.88,7.58.38S24,19.07,24.83,17s.62-3-.29-4.17-1.92-2.08-1.84-3.25,1.79-3.37,5.09-3.21,6,1.63,4.91,4.25-3,5.42-2,7.46,1.84,2.21,3.38,2.34,6.91-.3,8.25.12,1.75,2,1.66,4.71-1.25,5.46-.54,7.5,1.84,2.42,3,2.37a5.4,5.4,0,0,0,3.5-1.54c1-1,2.13-2.12,3.46-1.83s1.75,1.87,2,3.37S55.2,38.74,55,38.61ZM10.12,23.82a34,34,0,0,0-.25,5.08c0,.42.5.42,1,.17s0-2.33.08-3a1.66,1.66,0,0,1,.58-1.38c.34-.2,1-.58.75-1.08S10.32,23.51,10.12,23.82Zm21.29-13c.33-.25.33-1.21-.29-1.92a3.61,3.61,0,0,0-2.29-1.16.53.53,0,0,0-.54.62,12.54,12.54,0,0,0,1.37.92A1.93,1.93,0,0,1,30.49,11C30.58,11.15,31.08,11.07,31.41,10.82ZM13.08,54.61c-.59-.41-.17-3.79-.09-4.16s-1-.71-1.25-.42-.37,4.71.25,5.71,2.34.75,2.75.71.46-.59.17-1S13.66,55,13.08,54.61Z"/></svg>